{
	"asset": {
		"version": "2.0",
		"generator": "THREE.GLTFExporter r164"
	},
	"scenes": [
		{
			"name": "AuxScene",
			"nodes": [5]
		}
	],
	"scene": 0,
	"nodes": [
		{
			"matrix": [1, 0, 0, 0, 0, 1, 0, 0, 0, 0, 1, 0, -0.24, 0, 0, 1],
			"name": "Bone1"
		},
		{
			"matrix": [1, 0, 0, 0, 0, 1, 0, 0, 0, 0, 1, 0, -0.12, 0, 0, 1],
			"name": "Bone2"
		},
		{
			"matrix": [1, 0, 0, 0, 0, 1, 0, 0, 0, 0, 1, 0, 0, 0.000001, 0, 1],
			"name": "Bone3"
		},
		{
			"matrix": [1, 0, 0, 0, 0, 1, 0, 0, 0, 0, 1, 0, 0.12, 0, 0, 1],
			"name": "Bone4"
		},
		{
			"matrix": [1, 0, 0, 0, 0, 1, 0, 0, 0, 0, 1, 0, 0.24, 0, 0, 1],
			"name": "Bone5"
		},
		{
			"mesh": 0,
			"children": [0, 1, 2, 3, 4],
			"skin": 0
		}
	],
	"bufferViews": [
		{
			"buffer": 0,
			"byteOffset": 0,
			"byteLength": 5184,
			"target": 34962,
			"byteStride": 12
		},
		{
			"buffer": 0,
			"byteOffset": 5184,
			"byteLength": 5184,
			"target": 34962,
			"byteStride": 12
		},
		{
			"buffer": 0,
			"byteOffset": 10368,
			"byteLength": 3456,
			"target": 34962,
			"byteStride": 8
		},
		{
			"buffer": 0,
			"byteOffset": 13824,
			"byteLength": 3456,
			"target": 34962,
			"byteStride": 8
		},
		{
			"buffer": 0,
			"byteOffset": 17280,
			"byteLength": 3456,
			"target": 34962,
			"byteStride": 8
		},
		{
			"buffer": 0,
			"byteOffset": 20736,
			"byteLength": 3456,
			"target": 34962,
			"byteStride": 8
		},
		{
			"buffer": 0,
			"byteOffset": 24192,
			"byteLength": 6912,
			"target": 34962,
			"byteStride": 16
		},
		{
			"buffer": 0,
			"byteOffset": 31104,
			"byteLength": 3192,
			"target": 34963
		},
		{
			"buffer": 0,
			"byteOffset": 34296,
			"byteLength": 320
		}
	],
	"buffers": [
		{
			"byteLength": 34616,
			"uri": "data:application/octet-stream;base64,"
		}
	],
	"accessors": [
		{
			"bufferView": 0,
			"componentType": 5126,
			"count": 432,
			"max": [0.27328941226005554, 0.05760324001312256, 0.14768218994140625],
			"min": [-0.2948787212371826, -0.05378982797265053, -0.2066483348608017],
			"type": "VEC3"
		},
		{
			"bufferView": 1,
			"componentType": 5126,
			"count": 432,
			"max": [0.9288034439086914, 1, 0.9238580465316772],
			"min": [-0.928310751914978, -1, -0.9257590770721436],
			"type": "VEC3"
		},
		{
			"bufferView": 2,
			"componentType": 5126,
			"count": 432,
			"max": [0.5787578821182251, 0.9577913284301758],
			"min": [0.00670662522315979, 0.12482321262359619],
			"type": "VEC2"
		},
		{
			"bufferView": 3,
			"componentType": 5126,
			"count": 432,
			"max": [0.9239484071731567, 0.9123510122299194],
			"min": [0.8785200119018555, 0.890995979309082],
			"type": "VEC2"
		},
		{
			"bufferView": 4,
			"componentType": 5126,
			"count": 432,
			"max": [0.3871691823005676, 0.1324244737625122],
			"min": [0.33296895027160645, 0.07613861560821533],
			"type": "VEC2"
		},
		{
			"bufferView": 5,
			"componentType": 5123,
			"count": 432,
			"max": [3, 4, 3, 3],
			"min": [0, 1, 0, 0],
			"type": "VEC4"
		},
		{
			"bufferView": 6,
			"componentType": 5126,
			"count": 432,
			"max": [1, 1, 0, 0],
			"min": [0, 0, 0, 0],
			"type": "VEC4"
		},
		{
			"bufferView": 7,
			"componentType": 5123,
			"count": 1596,
			"max": [431],
			"min": [0],
			"type": "SCALAR"
		},
		{
			"bufferView": 8,
			"componentType": 5126,
			"count": 5,
			"max": [1, 0, 0, 0, 0, 1, 0, 0, 0, 0, 1, 0, 0.23999999463558197, 0, 0, 1],
			"min": [
				1, 0, 0, 0, 0, 1, 0, 0, 0, 0, 1, 0, -0.23999999463558197, -9.999999974752427e-7, 0, 1
			],
			"type": "MAT4"
		}
	],
	"materials": [
		{
			"pbrMetallicRoughness": {
				"metallicFactor": 0,
				"roughnessFactor": 0.9
			},
			"extensions": {
				"KHR_materials_unlit": {}
			}
		}
	],
	"meshes": [
		{
			"primitives": [
				{
					"mode": 4,
					"attributes": {
						"POSITION": 0,
						"NORMAL": 1,
						"TEXCOORD_0": 2,
						"TEXCOORD_1": 3,
						"TEXCOORD_2": 4,
						"JOINTS_0": 5,
						"WEIGHTS_0": 6
					},
					"indices": 7,
					"material": 0
				}
			]
		}
	],
	"skins": [
		{
			"inverseBindMatrices": 8,
			"joints": [0, 1, 2, 3, 4]
		}
	]
}
